<svg width="34" height="34" viewBox="0 0 34 34" fill="none" xmlns="http://www.w3.org/2000/svg">
<mask id="mask0_817_142449" style="mask-type:alpha" maskUnits="userSpaceOnUse" x="0" y="0" width="34" height="34">
<rect width="34" height="34" fill="#D9D9D9"/>
</mask>
<g mask="url(#mask0_817_142449)">
<path d="M21.2714 27.1714L16.0095 22.1726L17.7429 20.526L21.2714 23.8781L28.2667 17.2326L30 18.8793L21.2714 27.1714ZM16.381 14.2333L26.2857 8.35238H6.47619L16.381 14.2333ZM16.381 16.5857L6.47619 10.7048V22.4667H12.8524L15.3286 24.819H6.47619C5.79524 24.819 5.2123 24.5887 4.72738 24.128C4.24246 23.6674 4 23.1136 4 22.4667V8.35238C4 7.70548 4.24246 7.15169 4.72738 6.69101C5.2123 6.23034 5.79524 6 6.47619 6H26.2857C26.9667 6 27.5496 6.23034 28.0345 6.69101C28.5194 7.15169 28.7619 7.70548 28.7619 8.35238V13.4688L26.2857 15.8212V10.7048L16.381 16.5857Z" fill="#2A2A2A"/>
</g>
</svg>
