<svg width="19" height="18" viewBox="0 0 19 18" fill="none" xmlns="http://www.w3.org/2000/svg">
<path fill-rule="evenodd" clip-rule="evenodd" d="M11.6589 7.05818C11.6589 9.19244 9.82879 11.1149 7.32946 11.1149C4.83012 11.1149 3 9.19244 3 7.05818C3 4.92393 4.83012 3.00146 7.32946 3.00146C9.82879 3.00146 11.6589 4.92393 11.6589 7.05818ZM11.2587 13.0163C10.1231 13.7119 8.77514 14.1149 7.32946 14.1149C3.28151 14.1149 0 10.9555 0 7.05818C0 3.16087 3.28151 0.00146484 7.32946 0.00146484C11.3774 0.00146484 14.6589 3.16087 14.6589 7.05818C14.6589 8.49888 14.2105 9.83874 13.4407 10.9554L18.1822 15.539L16.0252 17.6241L11.2587 13.0163Z" fill="#828282"/>
</svg>
